<svg width="20" height="20" viewBox="0 0 20 20" fill="none" xmlns="http://www.w3.org/2000/svg">
<path d="M2.5 1.66663V18.3333M17.5 8.33329V18.3333M17.5 1.66663V4.99996M6.66667 12.5V13.3333C6.66667 14.905 6.66667 15.69 7.155 16.1783C7.64333 16.6666 8.42833 16.6666 10 16.6666C11.5717 16.6666 12.3567 16.6666 12.845 16.1783C13.3333 15.69 13.3333 14.905 13.3333 13.3333V6.66663C13.3333 5.09496 13.3333 4.30996 12.845 3.82163C12.3567 3.33329 11.5717 3.33329 10 3.33329C8.42833 3.33329 7.64333 3.33329 7.155 3.82163C6.66667 4.30996 6.66667 5.09496 6.66667 6.66663V9.16663" stroke="black" stroke-width="1.25" stroke-linecap="round"/>
</svg>
