<svg width="20" height="20" viewBox="0 0 20 20" fill="none" xmlns="http://www.w3.org/2000/svg">
<path d="M18.3327 2.5H1.66602M18.3327 17.5H14.9993M1.66602 17.5H11.666M7.49935 6.66667H6.66602C5.09435 6.66667 4.30935 6.66667 3.82102 7.155C3.33268 7.64333 3.33268 8.42833 3.33268 10C3.33268 11.5717 3.33268 12.3567 3.82102 12.845C4.30935 13.3333 5.09435 13.3333 6.66602 13.3333H13.3327C14.9043 13.3333 15.6893 13.3333 16.1777 12.845C16.666 12.3567 16.666 11.5717 16.666 10C16.666 8.42833 16.666 7.64333 16.1777 7.155C15.6893 6.66667 14.9043 6.66667 13.3327 6.66667H10.8327" stroke="black" stroke-width="1.25" stroke-linecap="round"/>
</svg>
