<svg width="20" height="20" viewBox="0 0 20 20" fill="none" xmlns="http://www.w3.org/2000/svg">
<path d="M3.70292 5.34333C4.31549 5.34333 4.81208 4.84674 4.81208 4.23417C4.81208 3.62159 4.31549 3.125 3.70292 3.125C3.09034 3.125 2.59375 3.62159 2.59375 4.23417C2.59375 4.84674 3.09034 5.34333 3.70292 5.34333Z" fill="black"/>
<path d="M7.60352 4.2334H17.4077" stroke="black" stroke-width="1.25" stroke-linecap="round" stroke-linejoin="round"/>
<path d="M3.70292 11.109C4.31549 11.109 4.81208 10.6124 4.81208 9.99979C4.81208 9.38722 4.31549 8.89062 3.70292 8.89062C3.09034 8.89062 2.59375 9.38722 2.59375 9.99979C2.59375 10.6124 3.09034 11.109 3.70292 11.109Z" fill="black"/>
<path d="M7.60352 10H17.4077" stroke="black" stroke-width="1.25" stroke-linecap="round" stroke-linejoin="round"/>
<path d="M3.70292 16.8746C4.31549 16.8746 4.81208 16.378 4.81208 15.7654C4.81208 15.1528 4.31549 14.6562 3.70292 14.6562C3.09034 14.6562 2.59375 15.1528 2.59375 15.7654C2.59375 16.378 3.09034 16.8746 3.70292 16.8746Z" fill="black"/>
<path d="M7.60352 15.7666H17.4077" stroke="black" stroke-width="1.25" stroke-linecap="round" stroke-linejoin="round"/>
</svg>
