<svg width="20" height="20" viewBox="0 0 20 20" fill="none" xmlns="http://www.w3.org/2000/svg">
<path d="M18.2 7.35098C18.1726 5.23538 18.1515 4.27385 17.356 3.47764C16.3802 2.50098 14.8085 2.50098 11.666 2.50098H8.33268C5.19018 2.50098 3.61935 2.50181 2.64268 3.47764C1.66602 4.45348 1.66602 6.02514 1.66602 9.16764V11.6676C1.66602 14.8101 1.66685 16.381 2.64268 17.3576C3.61852 18.3343 5.19018 18.3343 8.33268 18.3343H9.80234M18.3327 9.96251V11.6676C18.3327 14.8101 18.3327 16.3818 17.356 17.3576C16.3793 18.3335 14.8085 18.3343 11.666 18.3343H9.80234M9.80234 7.58055V18.3343" stroke="black" stroke-width="1.25" stroke-linecap="round"/>
<path d="M18.334 13.334H6.96999M18.1976 7.50065H1.66732" stroke="black" stroke-width="1.25" stroke-linecap="round"/>
</svg>
