<svg width="20" height="20" viewBox="0 0 20 20" fill="none" xmlns="http://www.w3.org/2000/svg">
<path fill-rule="evenodd" clip-rule="evenodd" d="M8.28602 1.04175H8.33268C8.49844 1.04175 8.65741 1.1076 8.77462 1.22481C8.89183 1.34202 8.95768 1.50099 8.95768 1.66675C8.95768 1.83251 8.89183 1.99148 8.77462 2.10869C8.65741 2.2259 8.49844 2.29175 8.33268 2.29175C6.74352 2.29175 5.61518 2.29341 4.75768 2.40841C3.92018 2.52091 3.43685 2.73258 3.08435 3.08508C2.73185 3.43758 2.52018 3.92091 2.40768 4.75841C2.29268 5.61591 2.29102 6.74425 2.29102 8.33341C2.29102 8.49917 2.22517 8.65815 2.10796 8.77536C1.99075 8.89257 1.83178 8.95841 1.66602 8.95841C1.50026 8.95841 1.34128 8.89257 1.22407 8.77536C1.10686 8.65815 1.04102 8.49917 1.04102 8.33341V8.28675C1.04102 6.75508 1.04102 5.54175 1.16852 4.59258C1.30018 3.61591 1.57685 2.82508 2.20018 2.20091C2.82435 1.57758 3.61518 1.30091 4.59185 1.16925C5.54185 1.04175 6.75435 1.04175 8.28602 1.04175ZM15.2402 2.40841C14.3843 2.29341 13.2552 2.29175 11.666 2.29175C11.5003 2.29175 11.3413 2.2259 11.2241 2.10869C11.1069 1.99148 11.041 1.83251 11.041 1.66675C11.041 1.50099 11.1069 1.34202 11.2241 1.22481C11.3413 1.1076 11.5003 1.04175 11.666 1.04175H11.7127C13.2443 1.04175 14.4577 1.04175 15.4068 1.16925C16.3835 1.30091 17.1743 1.57758 17.7985 2.20091C18.4218 2.82508 18.6985 3.61591 18.8302 4.59258C18.9577 5.54258 18.9577 6.75508 18.9577 8.28675V8.33341C18.9577 8.49917 18.8918 8.65815 18.7746 8.77536C18.6574 8.89257 18.4984 8.95841 18.3327 8.95841C18.1669 8.95841 18.0079 8.89257 17.8907 8.77536C17.7735 8.65815 17.7077 8.49917 17.7077 8.33341C17.7077 6.74425 17.706 5.61591 17.591 4.75841C17.4785 3.92091 17.2668 3.43758 16.9143 3.08508C16.5618 2.73258 16.0785 2.52091 15.2402 2.40841ZM7.91352 5.23341C7.73852 5.21008 7.49352 5.20841 7.08268 5.20841C6.47602 5.20841 6.08268 5.21008 5.79435 5.24841C5.52352 5.28508 5.43852 5.34425 5.39102 5.39175C5.34352 5.43925 5.28435 5.52425 5.24768 5.79508C5.20935 6.08425 5.20768 6.47675 5.20768 7.08341C5.20768 7.49425 5.20935 7.73925 5.23268 7.91425C5.23788 7.96473 5.24965 8.01431 5.26768 8.06175L5.26852 8.06425L5.27102 8.06508L5.27935 8.06925C5.29768 8.07675 5.33768 8.08925 5.41852 8.10008C5.59352 8.12341 5.83852 8.12508 6.24935 8.12508H7.08268C7.49352 8.12508 7.73852 8.12341 7.91352 8.10008C7.964 8.09488 8.01358 8.08311 8.06102 8.06508L8.06352 8.06425L8.06435 8.06175L8.06852 8.05341C8.08444 8.00846 8.0948 7.96172 8.09935 7.91425C8.12268 7.73925 8.12435 7.49425 8.12435 7.08341V6.25008C8.12435 5.83925 8.12268 5.59425 8.09935 5.41925C8.0948 5.37177 8.08444 5.32504 8.06852 5.28008L8.06685 5.27675L8.06435 5.27175L8.06352 5.26925L8.06102 5.26841L8.05268 5.26425C8.00773 5.24832 7.96099 5.23796 7.91352 5.23341ZM8.08018 3.99425C8.37685 4.03425 8.68935 4.12758 8.94685 4.38591C9.20435 4.64425 9.29852 4.95591 9.33852 5.25258C9.37435 5.52175 9.37435 5.85258 9.37435 6.21258V7.12091C9.37435 7.48175 9.37435 7.81258 9.33852 8.08091C9.29852 8.37758 9.20518 8.69008 8.94685 8.94758C8.68852 9.20508 8.37685 9.29925 8.08018 9.33925C7.81102 9.37508 7.48018 9.37508 7.12018 9.37508H6.21185C5.85102 9.37508 5.52018 9.37508 5.25185 9.33925C4.95518 9.29925 4.64268 9.20591 4.38518 8.94758C4.12768 8.68925 4.03352 8.37758 3.99352 8.08091C3.95768 7.81175 3.95768 7.48091 3.95768 7.12091V7.04175C3.95768 6.48841 3.95768 6.01091 4.00935 5.62841C4.06435 5.21925 4.18852 4.82591 4.50685 4.50758C4.82518 4.18925 5.21852 4.06508 5.62768 4.01008C6.01018 3.95841 6.48768 3.95841 7.04185 3.95841H7.12018C7.48102 3.95841 7.81185 3.95841 8.08018 3.99425ZM12.8785 3.95841H12.9568C13.511 3.95841 13.9885 3.95841 14.371 4.01008C14.781 4.06508 15.1735 4.18925 15.4918 4.50758C15.8102 4.82591 15.9343 5.21925 15.9893 5.62841C16.041 6.01091 16.041 6.48841 16.041 7.04258V7.12091C16.041 7.48175 16.041 7.81258 16.0052 8.08091C15.9652 8.37758 15.8718 8.69008 15.6135 8.94758C15.3552 9.20508 15.0435 9.29925 14.7468 9.33925C14.4777 9.37508 14.1468 9.37508 13.7868 9.37508H12.8785C12.5177 9.37508 12.1868 9.37508 11.9185 9.33925C11.6218 9.29925 11.3093 9.20591 11.0518 8.94758C10.7943 8.68925 10.7002 8.37758 10.6602 8.08091C10.6243 7.81175 10.6243 7.48091 10.6243 7.12091V6.21258C10.6243 5.85175 10.6243 5.52091 10.6602 5.25258C10.7002 4.95591 10.7935 4.64341 11.0518 4.38591C11.3102 4.12841 11.6218 4.03425 11.9185 3.99425C12.1877 3.95841 12.5185 3.95841 12.8785 3.95841ZM11.9368 5.26841L11.9352 5.26925L11.9343 5.27175L11.9302 5.28008C11.9143 5.32504 11.9039 5.37177 11.8993 5.41925C11.876 5.59425 11.8743 5.83925 11.8743 6.25008V7.08341C11.8743 7.49425 11.876 7.73925 11.8993 7.91425C11.9045 7.96473 11.9163 8.01431 11.9343 8.06175L11.9352 8.06425L11.9377 8.06508L11.946 8.06925C11.9643 8.07675 12.0043 8.08925 12.0852 8.10008C12.2602 8.12341 12.5052 8.12508 12.916 8.12508H13.7493C14.1602 8.12508 14.4052 8.12341 14.5802 8.10008C14.6307 8.09488 14.6802 8.08311 14.7277 8.06508L14.7302 8.06425L14.731 8.06175L14.7352 8.05341C14.7511 8.00846 14.7615 7.96172 14.766 7.91425C14.7893 7.73925 14.791 7.49425 14.791 7.08341C14.791 6.47675 14.7893 6.08341 14.751 5.79508C14.7143 5.52425 14.6552 5.43925 14.6077 5.39175C14.5602 5.34425 14.4752 5.28508 14.2043 5.24841C13.9152 5.21008 13.5227 5.20841 12.916 5.20841C12.5052 5.20841 12.2602 5.21008 12.0852 5.23341C12.0377 5.23796 11.991 5.24832 11.946 5.26425L11.9418 5.26591L11.9368 5.26841ZM6.21185 10.6251H7.12018C7.48102 10.6251 7.81185 10.6251 8.08018 10.6609C8.37685 10.7009 8.68935 10.7942 8.94685 11.0526C9.20435 11.3109 9.29852 11.6226 9.33852 11.9192C9.37435 12.1884 9.37435 12.5192 9.37435 12.8792V13.7876C9.37435 14.1484 9.37435 14.4792 9.33852 14.7476C9.29852 15.0442 9.20518 15.3567 8.94685 15.6142C8.68852 15.8717 8.37685 15.9659 8.08018 16.0059C7.81102 16.0417 7.48018 16.0417 7.12018 16.0417H7.04102C6.48685 16.0417 6.00935 16.0417 5.62685 15.9901C5.21768 15.9351 4.82435 15.8109 4.50602 15.4926C4.18768 15.1742 4.06352 14.7809 4.00852 14.3717C3.95685 13.9892 3.95685 13.5117 3.95685 12.9576V12.8792C3.95685 12.5184 3.95685 12.1876 3.99268 11.9192C4.03268 11.6226 4.12602 11.3101 4.38435 11.0526C4.64268 10.7951 4.95435 10.7009 5.25102 10.6609C5.52018 10.6251 5.85185 10.6251 6.21185 10.6251ZM5.26935 11.9351L5.26768 11.9359L5.26685 11.9384L5.26268 11.9467C5.24675 11.9917 5.2364 12.0384 5.23185 12.0859C5.20852 12.2609 5.20685 12.5059 5.20685 12.9167C5.20685 13.5234 5.20852 13.9167 5.24685 14.2051C5.28352 14.4759 5.34268 14.5609 5.39018 14.6084C5.43768 14.6559 5.52268 14.7151 5.79352 14.7517C6.08268 14.7901 6.47518 14.7917 7.08185 14.7917C7.49268 14.7917 7.73768 14.7901 7.91268 14.7667C7.96316 14.7615 8.01275 14.7498 8.06018 14.7317L8.06268 14.7309L8.06352 14.7284L8.06768 14.7201C8.08361 14.6751 8.09397 14.6284 8.09852 14.5809C8.12185 14.4059 8.12352 14.1609 8.12352 13.7501V12.9167C8.12352 12.5059 8.12185 12.2609 8.09852 12.0859C8.09331 12.0354 8.08155 11.9858 8.06352 11.9384L8.06268 11.9359L8.06018 11.9351L8.05185 11.9309C8.00689 11.915 7.96016 11.9046 7.91268 11.9001C7.73768 11.8767 7.49268 11.8751 7.08185 11.8751H6.24852C5.83768 11.8751 5.59268 11.8767 5.41768 11.9001C5.3672 11.9053 5.31678 11.917 5.26935 11.9351ZM12.8785 10.6251H13.7868C14.1477 10.6251 14.4785 10.6251 14.7468 10.6609C15.0435 10.7009 15.356 10.7942 15.6135 11.0526C15.871 11.3109 15.9652 11.6226 16.0052 11.9192C16.041 12.1884 16.041 12.5192 16.041 12.8792V12.9576C16.041 13.5117 16.041 13.9892 15.9893 14.3717C15.9343 14.7817 15.8102 15.1742 15.4918 15.4926C15.1735 15.8109 14.7802 15.9351 14.371 15.9901C13.9885 16.0417 13.511 16.0417 12.9568 16.0417H12.8785C12.5177 16.0417 12.1868 16.0417 11.9185 16.0059C11.6218 15.9659 11.3093 15.8726 11.0518 15.6142C10.7943 15.3559 10.7002 15.0442 10.6602 14.7476C10.6243 14.4784 10.6243 14.1476 10.6243 13.7876V12.8792C10.6243 12.5184 10.6243 12.1876 10.6602 11.9192C10.7002 11.6226 10.7935 11.3101 11.0518 11.0526C11.3102 10.7951 11.6218 10.7009 11.9185 10.6609C12.1877 10.6251 12.5185 10.6251 12.8785 10.6251ZM11.9368 11.9351L11.9352 11.9359L11.9343 11.9384L11.9327 11.9417L11.9302 11.9467C11.9143 11.9917 11.9039 12.0384 11.8993 12.0859C11.876 12.2609 11.8743 12.5059 11.8743 12.9167V13.7501C11.8743 14.1609 11.876 14.4059 11.8993 14.5809C11.9042 14.6305 11.9154 14.6792 11.9327 14.7259L11.9343 14.7284L11.9352 14.7309L11.9377 14.7317L11.946 14.7359C11.9643 14.7434 12.0043 14.7559 12.0852 14.7667C12.2602 14.7901 12.5052 14.7917 12.916 14.7917C13.5227 14.7917 13.916 14.7901 14.2043 14.7517C14.4752 14.7151 14.5602 14.6559 14.6077 14.6084C14.6552 14.5609 14.7143 14.4759 14.751 14.2051C14.7893 13.9159 14.791 13.5234 14.791 12.9167C14.791 12.5059 14.7893 12.2609 14.766 12.0859C14.7608 12.0354 14.749 11.9858 14.731 11.9384L14.7302 11.9359L14.7277 11.9351L14.7193 11.9309C14.6744 11.915 14.6277 11.9046 14.5802 11.9001C14.4052 11.8767 14.1602 11.8751 13.7493 11.8751H12.916C12.5052 11.8751 12.2602 11.8767 12.0852 11.9001C12.0347 11.9053 11.9851 11.917 11.9377 11.9351M1.66602 11.0417C1.83178 11.0417 1.99075 11.1076 2.10796 11.2248C2.22517 11.342 2.29102 11.501 2.29102 11.6667C2.29102 13.2559 2.29268 14.3851 2.40768 15.2417C2.52018 16.0792 2.73185 16.5626 3.08435 16.9151C3.43685 17.2676 3.92018 17.4792 4.75852 17.5917C5.61518 17.7067 6.74352 17.7084 8.33268 17.7084C8.49844 17.7084 8.65741 17.7743 8.77462 17.8915C8.89183 18.0087 8.95768 18.1677 8.95768 18.3334C8.95768 18.4992 8.89183 18.6581 8.77462 18.7754C8.65741 18.8926 8.49844 18.9584 8.33268 18.9584H8.28602C6.75435 18.9584 5.54102 18.9584 4.59185 18.8309C3.61518 18.6992 2.82435 18.4226 2.20018 17.7992C1.57685 17.1751 1.30018 16.3842 1.16852 15.4076C1.04102 14.4576 1.04102 13.2451 1.04102 11.7134V11.6667C1.04102 11.501 1.10686 11.342 1.22407 11.2248C1.34128 11.1076 1.50026 11.0417 1.66602 11.0417ZM18.3327 11.0417C18.4984 11.0417 18.6574 11.1076 18.7746 11.2248C18.8918 11.342 18.9577 11.501 18.9577 11.6667V11.7134C18.9577 13.2451 18.9577 14.4584 18.8302 15.4076C18.6985 16.3842 18.4218 17.1751 17.7985 17.7992C17.1743 18.4226 16.3835 18.6992 15.4068 18.8309C14.4568 18.9584 13.2443 18.9584 11.7127 18.9584H11.666C11.5003 18.9584 11.3413 18.8926 11.2241 18.7754C11.1069 18.6581 11.041 18.4992 11.041 18.3334C11.041 18.1677 11.1069 18.0087 11.2241 17.8915C11.3413 17.7743 11.5003 17.7084 11.666 17.7084C13.2552 17.7084 14.3843 17.7067 15.241 17.5917C16.0785 17.4792 16.5618 17.2676 16.9143 16.9151C17.2668 16.5626 17.4785 16.0792 17.591 15.2409C17.706 14.3851 17.7077 13.2559 17.7077 11.6667C17.7077 11.501 17.7735 11.342 17.8907 11.2248C18.0079 11.1076 18.1669 11.0417 18.3327 11.0417Z" fill="black"/>
</svg>
