<svg width="20" height="20" viewBox="0 0 20 20" fill="none" xmlns="http://www.w3.org/2000/svg">
<path d="M6.66797 10.8334V13.3334H13.3346V6.66675H6.66797V7.50008" stroke="black" stroke-width="1.25" stroke-linecap="round"/>
<path d="M13.3338 13.3342H15.8338C16.3283 13.3342 16.8116 13.4809 17.2227 13.7556C17.6338 14.0303 17.9543 14.4207 18.1435 14.8775C18.3327 15.3344 18.3822 15.837 18.2858 16.322C18.1893 16.8069 17.9512 17.2524 17.6016 17.602C17.2519 17.9516 16.8065 18.1897 16.3215 18.2862C15.8366 18.3827 15.3339 18.3332 14.8771 18.1439C14.4203 17.9547 14.0298 17.6343 13.7551 17.2232C13.4804 16.8121 13.3338 16.3287 13.3338 15.8342V13.3342ZM6.66797 13.3342H4.16797C3.67352 13.3342 3.19017 13.4809 2.77904 13.7556C2.36792 14.0303 2.04749 14.4207 1.85827 14.8775C1.66905 15.3344 1.61954 15.837 1.71601 16.322C1.81247 16.8069 2.05057 17.2524 2.4002 17.602C2.74983 17.9516 3.19529 18.1897 3.68024 18.2862C4.1652 18.3827 4.66786 18.3332 5.12468 18.1439C5.58149 17.9547 5.97194 17.6343 6.24664 17.2232C6.52135 16.8121 6.66797 16.3287 6.66797 15.8342V13.3342ZM13.3338 6.66675H15.8338C16.3283 6.66675 16.8116 6.52013 17.2227 6.24542C17.6338 5.97072 17.9543 5.58027 18.1435 5.12346C18.3327 4.66664 18.3822 4.16398 18.2858 3.67902C18.1893 3.19407 17.9512 2.74861 17.6016 2.39898C17.2519 2.04935 16.8065 1.81125 16.3215 1.71479C15.8366 1.61832 15.3339 1.66783 14.8771 1.85705C14.4203 2.04627 14.0298 2.3667 13.7551 2.77782C13.4804 3.18895 13.3338 3.6723 13.3338 4.16675V6.66675ZM6.66797 6.66675H4.16797C3.67352 6.66675 3.19017 6.52013 2.77904 6.24542C2.36792 5.97072 2.04749 5.58027 1.85827 5.12346C1.66905 4.66664 1.61954 4.16398 1.71601 3.67902C1.81247 3.19407 2.05057 2.74861 2.4002 2.39898C2.74983 2.04935 3.19529 1.81125 3.68024 1.71479C4.1652 1.61832 4.66786 1.66783 5.12468 1.85705C5.58149 2.04627 5.97194 2.3667 6.24664 2.77782C6.52135 3.18895 6.66797 3.6723 6.66797 4.16675V6.66675Z" stroke="black" stroke-width="1.25"/>
</svg>
