<svg width="20" height="20" viewBox="0 0 20 20" fill="none" xmlns="http://www.w3.org/2000/svg">
<path d="M15.8327 13.3332C15.8327 15.6898 15.8327 16.869 15.1002 17.6007C14.3685 18.3332 13.1893 18.3332 10.8327 18.3332H9.16602C6.80935 18.3332 5.63018 18.3332 4.89852 17.6007C4.16602 16.869 4.16602 15.6898 4.16602 13.3332V9.99984M4.16602 6.6665C4.16602 4.30984 4.16602 3.13067 4.89852 2.399C5.63018 1.6665 6.80935 1.6665 9.16602 1.6665H10.8327C13.1893 1.6665 14.3685 1.6665 15.1002 2.399C15.8327 3.13067 15.8327 4.30984 15.8327 6.6665V9.99984" stroke="black" stroke-width="1.25" stroke-linecap="round"/>
<path d="M4.16602 3.39648C3.35352 3.47648 2.80685 3.65732 2.39852 4.06565C1.66602 4.79732 1.66602 5.97648 1.66602 8.33315V11.6665C1.66602 14.0232 1.66602 15.2023 2.39852 15.934C2.80685 16.3423 3.35352 16.5232 4.16602 16.6032M15.8327 3.39648C16.6452 3.47648 17.1918 3.65732 17.6002 4.06565C18.3327 4.79732 18.3327 5.97648 18.3327 8.33315V11.6665C18.3327 14.0232 18.3327 15.2023 17.6002 15.934C17.1918 16.3423 16.6452 16.5232 15.8327 16.6032" stroke="black" stroke-width="1.25"/>
<path d="M7.5 10.8333H12.5M7.5 7.5H12.5M7.5 14.1667H10" stroke="black" stroke-width="1.25" stroke-linecap="round"/>
</svg>
