<svg width="20" height="20" viewBox="0 0 20 20" fill="none" xmlns="http://www.w3.org/2000/svg">
<path d="M11.0342 14.8707C11.1521 14.9845 11.31 15.0474 11.4739 15.0459C11.6377 15.0444 11.7945 14.9786 11.9103 14.8627C12.0261 14.7467 12.0918 14.5899 12.0931 14.4261C12.0945 14.2622 12.0314 14.1043 11.9175 13.9865L11.0342 14.8707ZM6.01333 8.08069C5.95565 8.02102 5.88666 7.97344 5.8104 7.94072C5.73413 7.908 5.65211 7.8908 5.56912 7.89012C5.48613 7.88944 5.40384 7.90529 5.32705 7.93675C5.25025 7.96821 5.18049 8.01466 5.12184 8.07337C5.06318 8.13208 5.01681 8.20188 4.98542 8.2787C4.95403 8.35553 4.93825 8.43784 4.93901 8.52082C4.93977 8.60381 4.95705 8.68581 4.98984 8.76205C5.02263 8.83829 5.07028 8.90723 5.13 8.96486L6.01333 8.08069ZM13.3942 13.3932C13.4556 13.336 13.5048 13.267 13.539 13.1903C13.5731 13.1136 13.5915 13.0309 13.593 12.947C13.5945 12.863 13.579 12.7797 13.5476 12.7019C13.5162 12.624 13.4694 12.5533 13.41 12.494C13.3507 12.4346 13.28 12.3879 13.2022 12.3564C13.1243 12.325 13.041 12.3095 12.9571 12.311C12.8731 12.3125 12.7904 12.3309 12.7137 12.365C12.6371 12.3992 12.5681 12.4485 12.5108 12.5099L13.3942 13.3932ZM15.39 9.62902C15.3288 9.68648 15.2799 9.75566 15.246 9.83245C15.2121 9.90924 15.1941 9.99206 15.193 10.076C15.1918 10.1599 15.2076 10.2432 15.2393 10.3209C15.271 10.3986 15.3181 10.4691 15.3776 10.5282C15.4372 10.5873 15.508 10.6338 15.586 10.665C15.6639 10.6961 15.7473 10.7112 15.8312 10.7094C15.9151 10.7077 15.9978 10.689 16.0743 10.6546C16.1509 10.6201 16.2197 10.5706 16.2767 10.509L15.39 9.62902ZM5.02917 9.94986L9.95 5.02819L9.06667 4.14569L4.14583 9.06486L5.02917 9.94986ZM5.02917 14.9699C4.32083 14.2615 3.835 13.7732 3.51917 13.359C3.21333 12.9582 3.125 12.7007 3.125 12.459L1.875 12.4599C1.875 13.084 2.135 13.6049 2.525 14.1174C2.90417 14.614 3.4625 15.1699 4.14583 15.8532L5.02917 14.9699ZM4.14583 9.06486C3.4625 9.74819 2.90417 10.3049 2.525 10.8015C2.135 11.3132 1.875 11.8349 1.875 12.4599L3.125 12.459C3.125 12.2174 3.21333 11.9599 3.51917 11.5599C3.83583 11.1449 4.32083 10.6582 5.02917 9.94986L4.14583 9.06486ZM10.05 14.9707C9.34167 15.679 8.85417 16.164 8.43917 16.4807C8.03917 16.7857 7.78083 16.874 7.53917 16.874V18.124C8.16417 18.124 8.68583 17.864 9.1975 17.474C9.69417 17.0949 10.2508 16.5365 10.9342 15.8532L10.05 14.9707ZM4.14583 15.8532C4.82917 16.5365 5.385 17.0949 5.8825 17.474C6.39417 17.864 6.91583 18.1249 7.54 18.1249V16.874C7.29833 16.874 7.04083 16.7857 6.64 16.4799C6.22583 16.1632 5.7375 15.6782 5.02917 14.9699L4.14583 15.8532ZM14.9708 5.02819C15.6792 5.73652 16.165 6.22486 16.4817 6.63902C16.7867 7.03986 16.875 7.29736 16.875 7.53902H18.125C18.125 6.91486 17.865 6.39319 17.475 5.88069C17.0958 5.38402 16.5375 4.82819 15.8542 4.14486L14.9708 5.02819ZM15.8542 4.14486C15.1708 3.46152 14.615 2.90319 14.1175 2.52402C13.6058 2.13402 13.0842 1.87402 12.46 1.87402V3.12402C12.7017 3.12402 12.9592 3.21236 13.36 3.51819C13.7742 3.83486 14.2625 4.31986 14.9708 5.02819L15.8542 4.14486ZM9.95 5.02819C10.6583 4.31986 11.1458 3.83402 11.5608 3.51819C11.9608 3.21236 12.2192 3.12402 12.4608 3.12402V1.87402C11.8358 1.87402 11.3142 2.13402 10.8025 2.52402C10.3058 2.90319 9.74917 3.46152 9.06583 4.14486L9.95 5.02819ZM11.9183 13.9857L6.01333 8.08152L5.13 8.96486L11.0342 14.8707L11.9183 13.9857ZM12.51 12.509L10.05 14.9707L10.9333 15.8532L13.3942 13.3932L12.51 12.509ZM16.2767 10.509C16.8275 9.95402 17.2817 9.47902 17.595 9.03236C17.9183 8.57152 18.125 8.09486 18.125 7.53902H16.875C16.875 7.75569 16.8033 7.98402 16.5717 8.31486C16.3292 8.66069 15.95 9.06486 15.39 9.62902L16.2767 10.509Z" fill="black"/>
<path d="M7.5 17.5H17.5" stroke="black" stroke-width="1.25" stroke-linecap="round"/>
</svg>
