<svg width="20" height="20" viewBox="0 0 20 20" fill="none" xmlns="http://www.w3.org/2000/svg">
<path d="M2.24527 6.37951C2.18007 6.22701 2.05696 6.10666 1.90302 6.04493C1.74909 5.9832 1.57694 5.98515 1.42444 6.05035C1.27194 6.11555 1.15158 6.23865 1.08985 6.39259C1.02812 6.54653 1.03007 6.71868 1.09527 6.87118L2.24527 6.37951ZM7.53777 12.2403C7.58441 12.1716 7.61688 12.0942 7.63327 12.0128C7.64966 11.9313 7.64965 11.8474 7.63323 11.766C7.61681 11.6845 7.58432 11.6072 7.53766 11.5384C7.49099 11.4697 7.43109 11.4109 7.36145 11.3656C7.29181 11.3203 7.21384 11.2893 7.13209 11.2745C7.05034 11.2597 6.96645 11.2613 6.88533 11.2793C6.80422 11.2972 6.7275 11.3312 6.65966 11.3792C6.59183 11.4272 6.53424 11.4882 6.49027 11.5587L7.53777 12.2403ZM5.31277 13.3678C5.26801 13.4367 5.23725 13.5137 5.22224 13.5944C5.20723 13.6751 5.20826 13.758 5.22529 13.8383C5.25967 14.0005 5.35708 14.1425 5.4961 14.2328C5.63512 14.3232 5.80435 14.3547 5.96657 14.3203C6.04689 14.3033 6.12308 14.2706 6.19077 14.2242C6.25846 14.1777 6.31634 14.1183 6.3611 14.0495L5.31277 13.3678ZM18.9119 6.87118C18.9701 6.72021 18.9675 6.55255 18.9046 6.40348C18.8417 6.2544 18.7235 6.13551 18.5748 6.07183C18.426 6.00815 18.2584 6.00463 18.1071 6.06201C17.9558 6.11939 17.8327 6.23321 17.7636 6.37951L18.9119 6.87118ZM16.6453 11.7587C16.7025 11.8201 16.7715 11.8693 16.8482 11.9035C16.9248 11.9377 17.0076 11.956 17.0915 11.9575C17.1754 11.959 17.2588 11.9436 17.3366 11.9121C17.4144 11.8807 17.4851 11.8339 17.5445 11.7745C17.6038 11.7152 17.6506 11.6445 17.682 11.5667C17.7135 11.4889 17.7289 11.4055 17.7274 11.3216C17.7259 11.2377 17.7076 11.1549 17.6734 11.0782C17.6393 11.0016 17.59 10.9326 17.5286 10.8753L16.6453 11.7587ZM9.3786 14.542C9.3786 14.7078 9.44445 14.8667 9.56166 14.984C9.67887 15.1012 9.83784 15.167 10.0036 15.167C10.1694 15.167 10.3283 15.1012 10.4455 14.984C10.5628 14.8667 10.6286 14.7078 10.6286 14.542H9.3786ZM13.6461 14.0495C13.7365 14.1885 13.8784 14.2859 14.0406 14.3203C14.2029 14.3547 14.3721 14.3232 14.5111 14.2328C14.6501 14.1425 14.7475 14.0005 14.7819 13.8383C14.8163 13.6761 14.7848 13.5069 14.6944 13.3678L13.6461 14.0495ZM4.61277 10.5078C4.72306 10.3893 4.78302 10.2325 4.78001 10.0706C4.777 9.90867 4.71126 9.75424 4.59664 9.63984C4.48202 9.52543 4.32747 9.45999 4.16555 9.45728C4.00363 9.45458 3.84698 9.51483 3.7286 9.62535L4.61277 10.5078ZM2.4786 10.8745C2.3682 10.993 2.3081 11.1497 2.31096 11.3116C2.31381 11.4735 2.37941 11.628 2.49392 11.7425C2.60843 11.857 2.76292 11.9226 2.92483 11.9255C3.08675 11.9284 3.24346 11.8682 3.36194 11.7578L2.4786 10.8745ZM10.0036 11.8337C7.31694 11.8337 5.38777 10.4962 4.10777 9.11701C3.56986 8.53501 3.09448 7.8982 2.68944 7.21701C2.53692 6.96067 2.39594 6.69763 2.26694 6.42868L2.2486 6.38785L2.24527 6.37951L2.24444 6.37868L1.67027 6.62535L1.09527 6.87118L1.0961 6.87201L1.09694 6.87451L1.09944 6.87951L1.13277 6.95285C1.15444 7.00174 1.18694 7.06924 1.23027 7.15535C1.3161 7.32701 1.4436 7.56868 1.61527 7.85618C1.95694 8.43118 2.47777 9.19785 3.1911 9.96701C4.62027 11.5045 6.85694 13.0837 10.0036 13.0837V11.8337ZM12.7644 11.3178C11.9561 11.637 11.0386 11.8337 10.0036 11.8337V13.0837C11.2019 13.0837 12.2744 12.8537 13.2219 12.4812L12.7644 11.3178ZM6.49027 11.5587L5.31277 13.3678L6.3611 14.0487L7.53777 12.2403L6.49027 11.5587ZM18.3369 6.62535L17.7619 6.37868H17.7628V6.38035L17.7569 6.39118L17.7336 6.44285C17.5738 6.77521 17.3958 7.09848 17.2003 7.41118C16.6997 8.21795 16.0976 8.95706 15.4086 9.61035L16.2644 10.522C17.3375 9.50424 18.2187 8.30177 18.8661 6.97201L18.8986 6.90118L18.9069 6.88118L18.9103 6.87535V6.87285L18.9111 6.87201L18.3369 6.62535ZM15.4086 9.61035C14.6919 10.282 13.8153 10.9037 12.7644 11.3178L13.2219 12.4812C14.4494 11.9978 15.4594 11.2778 16.2644 10.522L15.4086 9.61035ZM15.3953 10.5078L16.6453 11.7587L17.5286 10.8745L16.2786 9.62451L15.3953 10.5078ZM9.3786 12.4587V14.542H10.6286V12.4587H9.3786ZM12.4694 12.2403L13.6461 14.0495L14.6944 13.3678L13.5169 11.5587L12.4694 12.2403ZM3.72777 9.62368L2.47777 10.8737L3.36194 11.7578L4.61194 10.5087L3.72777 9.62368Z" fill="black"/>
</svg>
