<svg width="20" height="20" viewBox="0 0 20 20" fill="none" xmlns="http://www.w3.org/2000/svg">
<path d="M7.49935 3.71687C8.30772 3.46005 9.15117 3.33072 9.99935 3.33354C13.4843 3.33354 15.856 5.41688 17.2702 7.25354C17.9785 8.17521 18.3327 8.63437 18.3327 10.0002C18.3327 11.3669 17.9785 11.826 17.2702 12.7469C15.856 14.5835 13.4843 16.6669 9.99935 16.6669C6.51435 16.6669 4.14268 14.5835 2.72852 12.7469C2.02018 11.8269 1.66602 11.366 1.66602 10.0002C1.66602 8.63354 2.02018 8.17438 2.72852 7.25354C3.1606 6.68923 3.64163 6.16414 4.16602 5.68437" stroke="black" stroke-width="1.25" stroke-linecap="round"/>
<path d="M12.5 10C12.5 10.663 12.2366 11.2989 11.7678 11.7678C11.2989 12.2366 10.663 12.5 10 12.5C9.33696 12.5 8.70107 12.2366 8.23223 11.7678C7.76339 11.2989 7.5 10.663 7.5 10C7.5 9.33696 7.76339 8.70107 8.23223 8.23223C8.70107 7.76339 9.33696 7.5 10 7.5C10.663 7.5 11.2989 7.76339 11.7678 8.23223C12.2366 8.70107 12.5 9.33696 12.5 10Z" stroke="black" stroke-width="1.25"/>
</svg>
