<svg width="20" height="20" viewBox="0 0 20 20" fill="none" xmlns="http://www.w3.org/2000/svg">
<path d="M1.66602 6.6665V4.90484C1.66602 3.4865 1.66602 2.77734 2.11768 2.54484C2.57018 2.3115 3.14685 2.72484 4.30102 3.549L5.61935 4.49067C6.13268 4.85734 6.38935 5.04067 6.52768 5.309C6.66602 5.57817 6.66602 5.894 6.66602 6.52484V13.4748C6.66602 14.1057 6.66602 14.4215 6.52768 14.6907C6.38935 14.9598 6.13268 15.1432 5.61935 15.5098L4.30102 16.4515C3.14685 17.2748 2.57018 17.6873 2.11768 17.4548C1.66602 17.2215 1.66602 16.5132 1.66602 15.0948V9.99984M18.3327 9.99984V4.90484C18.3327 3.4865 18.3327 2.77734 17.881 2.54484C17.4285 2.3115 16.8518 2.72484 15.6977 3.549L14.3793 4.49067C13.866 4.85734 13.6093 5.04067 13.471 5.309C13.3327 5.57817 13.3327 5.894 13.3327 6.52484V13.4748C13.3327 14.1057 13.3327 14.4215 13.471 14.6907C13.6093 14.9598 13.866 15.1432 14.3793 15.5098L15.6968 16.4515C16.8518 17.2748 17.4285 17.6873 17.8802 17.4548C18.3318 17.2223 18.3327 16.5132 18.3327 15.0948V13.3807M9.99935 11.6665V8.33317M9.99935 4.99984V1.6665M9.99935 18.3332V14.9998" stroke="black" stroke-width="1.25" stroke-linecap="round"/>
</svg>
