<svg width="20" height="20" viewBox="0 0 20 20" fill="none" xmlns="http://www.w3.org/2000/svg">
<path d="M6.66602 18.3332H4.90435C3.48602 18.3332 2.77685 18.3332 2.54435 17.8815C2.31102 17.429 2.72352 16.8523 3.54852 15.6982L4.49018 14.3798C4.85602 13.8665 5.03935 13.6098 5.30852 13.4715C5.57768 13.3332 5.89352 13.3332 6.52435 13.3332H13.4752C14.106 13.3332 14.421 13.3332 14.6902 13.4715C14.9602 13.6098 15.1435 13.8665 15.5093 14.3798L16.451 15.6973C17.276 16.8523 17.6877 17.429 17.4552 17.8807C17.2218 18.3332 16.5135 18.3332 15.0943 18.3332H9.99935M9.99935 1.6665H4.90435C3.48602 1.6665 2.77685 1.6665 2.54435 2.11817C2.31102 2.57067 2.72352 3.14734 3.54852 4.3015L4.49018 5.61984C4.85602 6.13317 5.03935 6.38984 5.30852 6.52817C5.57768 6.6665 5.89352 6.6665 6.52435 6.6665H13.4752C14.106 6.6665 14.421 6.6665 14.6902 6.52817C14.9602 6.38984 15.1435 6.13317 15.5093 5.61984L16.451 4.3015C17.276 3.14734 17.6877 2.57067 17.4552 2.11817C17.221 1.6665 16.5127 1.6665 15.0935 1.6665H13.3802M11.666 9.99984H8.33268M4.99935 9.99984H1.66602M18.3327 9.99984H14.9993" stroke="black" stroke-width="1.25" stroke-linecap="round"/>
</svg>
