<svg width="20" height="20" viewBox="0 0 20 20" fill="none" xmlns="http://www.w3.org/2000/svg">
<path d="M18.3327 11.1984C18.3327 14.3401 18.3327 15.9117 17.356 16.8884C16.3793 17.8651 14.8085 17.8651 11.666 17.8651H8.33268C5.19018 17.8651 3.61852 17.8651 2.64268 16.8884C1.66685 15.9117 1.66602 14.3409 1.66602 11.1984C1.66602 8.0559 1.66602 6.4834 2.64268 5.50757C3.61935 4.53174 5.19018 4.53174 8.33268 4.53174H11.666C14.8085 4.53174 16.3802 4.53174 17.356 5.50757C17.9093 6.0609 18.1493 6.80424 18.2527 7.91674" stroke="black" stroke-width="1.25" stroke-linecap="round"/>
<path d="M3.32227 5C3.4156 4.22417 3.61143 3.68833 4.01977 3.28083C4.8031 2.5 6.06477 2.5 8.5881 2.5H11.2639C13.7873 2.5 15.0481 2.5 15.8323 3.28083C16.2406 3.68833 16.4364 4.22417 16.5298 5" stroke="black" stroke-width="1.25"/>
<path d="M14.582 9.53174C15.2724 9.53174 15.832 8.97209 15.832 8.28174C15.832 7.59138 15.2724 7.03174 14.582 7.03174C13.8917 7.03174 13.332 7.59138 13.332 8.28174C13.332 8.97209 13.8917 9.53174 14.582 9.53174Z" stroke="black" stroke-width="1.25"/>
<path d="M1.66602 11.615L3.12602 10.3375C3.49196 10.0175 3.9658 9.8486 4.45162 9.86484C4.93743 9.88109 5.39893 10.0813 5.74268 10.425L9.31768 14C9.59521 14.2772 9.96163 14.4477 10.3525 14.4814C10.7433 14.5151 11.1335 14.4098 11.4543 14.1841L11.7035 14.0092C12.1666 13.6841 12.7263 13.5257 13.291 13.5599C13.8558 13.5941 14.3922 13.8189 14.8127 14.1975L17.4993 16.6142" stroke="black" stroke-width="1.25" stroke-linecap="round"/>
</svg>
