<svg width="20" height="20" viewBox="0 0 20 20" fill="none" xmlns="http://www.w3.org/2000/svg">
<path d="M17.5 10.4167L16.04 9.13924C15.6741 8.8193 15.2002 8.65035 14.7144 8.6666C14.2286 8.68284 13.7671 8.88307 13.4233 9.22674L9.84833 12.8017C9.57091 13.0791 9.20454 13.2497 8.81371 13.2836C8.42288 13.3174 8.03263 13.2123 7.71167 12.9867L7.4625 12.8117C6.99951 12.4866 6.4399 12.328 5.87515 12.3621C5.3104 12.3962 4.7739 12.6208 4.35333 12.9992L2.66667 14.4167" stroke="black" stroke-width="1.25" stroke-linecap="round"/>
<path d="M18 8C18 11.9283 18.3327 15.8925 17.1118 17.1125C15.8927 18.3333 13.9277 18.3333 9.99935 18.3333C6.07102 18.3333 4.10685 18.3333 2.88602 17.1125C1.66602 15.8933 1.66602 13.9283 1.66602 10C1.66602 9.06 1.66602 8.23167 1.68268 7.5M11.9993 2.00016C8.07102 2.00016 4.10685 1.66667 2.88602 2.88667C2.53268 3.24083 2.28102 3.6575 2.10268 4.16667" stroke="black" stroke-width="1.25" stroke-linecap="round"/>
<path d="M13.5 4.25H15.5M15.5 4.25H17.5M15.5 4.25V6.25M15.5 4.25V2.25" stroke="black" stroke-width="1.25" stroke-linecap="round"/>
<path d="M7.20795 5.79064C6.82368 5.68767 6.41425 5.74157 6.06972 5.94049C5.7252 6.1394 5.4738 6.46703 5.37083 6.8513C5.26787 7.23556 5.32177 7.645 5.52068 7.98952C5.7196 8.33405 6.04722 8.58545 6.43149 8.68841C6.81576 8.79138 7.2252 8.73747 7.56972 8.53856C7.91425 8.33965 8.16565 8.01202 8.26861 7.62775" stroke="black" stroke-width="1.25" stroke-linecap="round"/>
</svg>
