<svg width="20" height="20" viewBox="0 0 20 20" fill="none" xmlns="http://www.w3.org/2000/svg">
<path d="M13.3327 8.75C13.3327 9.44 12.9593 10 12.4993 10C12.0393 10 11.666 9.44 11.666 8.75C11.666 8.06 12.0393 7.5 12.4993 7.5C12.9593 7.5 13.3327 8.06 13.3327 8.75Z" fill="black"/>
<path d="M7.49935 10C7.95959 10 8.33268 9.44036 8.33268 8.75C8.33268 8.05964 7.95959 7.5 7.49935 7.5C7.03911 7.5 6.66602 8.05964 6.66602 8.75C6.66602 9.44036 7.03911 10 7.49935 10Z" fill="black"/>
<path d="M18.3327 10.2498C18.3327 5.51067 14.6018 1.6665 9.99935 1.6665C5.39685 1.6665 1.66602 5.50984 1.66602 10.2498V16.4357C1.66602 17.5373 2.79185 18.254 3.74935 17.7615C4.12789 17.5662 4.5524 17.4774 4.97748 17.5047C5.40257 17.532 5.81223 17.6744 6.16268 17.9165C6.55549 18.1882 7.02175 18.3337 7.49935 18.3337C7.97694 18.3337 8.4432 18.1882 8.83602 17.9165L9.13018 17.7148C9.38588 17.5389 9.68896 17.4447 9.99935 17.4447C10.3097 17.4447 10.6128 17.5389 10.8685 17.7148L11.1627 17.9165C11.5555 18.1882 12.0218 18.3337 12.4993 18.3337C12.9769 18.3337 13.4432 18.1882 13.836 17.9165C14.1866 17.6742 14.5964 17.5318 15.0216 17.5045C15.4469 17.4772 15.8715 17.566 16.2502 17.7615C17.2068 18.254 18.3327 17.5373 18.3327 16.4357V13.3432" stroke="black" stroke-width="1.25" stroke-linecap="round"/>
</svg>
