<svg width="20" height="20" viewBox="0 0 20 20" fill="none" xmlns="http://www.w3.org/2000/svg">
<path d="M3.125 2.29199V5.20866C3.125 5.98221 3.43229 6.72407 3.97927 7.27105C4.52625 7.81803 5.26812 8.12533 6.04167 8.12533H13.9583C14.7319 8.12533 15.4737 7.81803 16.0207 7.27105C16.5677 6.72407 16.875 5.98221 16.875 5.20866V2.29199M4.79167 8.12533H15.2083V9.62533C15.2083 10.1116 15.0152 10.5779 14.6714 10.9217C14.3275 11.2655 13.8612 11.4587 13.375 11.4587H6.625C6.13877 11.4587 5.67245 11.2655 5.32864 10.9217C4.98482 10.5779 4.79167 10.1116 4.79167 9.62533V8.12533ZM13.5417 11.4587H6.45833V16.1778C6.4583 16.3511 6.49985 16.5219 6.57949 16.6758C6.65912 16.8298 6.77453 16.9623 6.916 17.0624C7.05748 17.1625 7.22091 17.2272 7.39257 17.251C7.56422 17.2749 7.73909 17.2572 7.9025 17.1995L12.43 15.6012C12.7551 15.4863 13.0366 15.2735 13.2357 14.9921C13.4348 14.7106 13.5417 14.3743 13.5417 14.0295V11.4587Z" stroke="black" stroke-width="1.25" stroke-linecap="round" stroke-linejoin="round"/>
</svg>
