<svg width="20" height="20" viewBox="0 0 20 20" fill="none" xmlns="http://www.w3.org/2000/svg">
<path d="M10 14.1665V9.1665" stroke="black" stroke-width="1.25" stroke-linecap="round"/>
<path d="M9.99935 5.83333C10.4596 5.83333 10.8327 6.20643 10.8327 6.66667C10.8327 7.1269 10.4596 7.5 9.99935 7.5C9.53911 7.5 9.16602 7.1269 9.16602 6.66667C9.16602 6.20643 9.53911 5.83333 9.99935 5.83333Z" fill="black"/>
<path d="M18.3327 9.99984C18.3327 13.9282 18.3327 15.8923 17.1118 17.1123C15.8927 18.3332 13.9277 18.3332 9.99935 18.3332C6.07102 18.3332 4.10685 18.3332 2.88602 17.1123C1.66602 15.8932 1.66602 13.9282 1.66602 9.99984C1.66602 6.0715 1.66602 4.10734 2.88602 2.8865C4.10768 1.6665 6.07102 1.6665 9.99935 1.6665C13.9277 1.6665 15.8918 1.6665 17.1118 2.8865C17.9235 3.69817 18.1952 4.839 18.2868 6.6665" stroke="black" stroke-width="1.25" stroke-linecap="round"/>
</svg>
