<svg width="20" height="20" viewBox="0 0 20 20" fill="none" xmlns="http://www.w3.org/2000/svg">
<g clip-path="url(#clip0_367_275)">
<path d="M14.1477 6.6665L16.0727 7.54984C17.5785 8.24317 18.3327 8.58984 18.3327 9.1665C18.3327 9.74317 17.5793 10.0907 16.0718 10.7832L11.9943 12.6557C11.011 13.1073 10.5193 13.3332 9.99935 13.3332C9.47935 13.3332 8.98768 13.1073 8.00435 12.6557L3.92685 10.7823C2.41935 10.0915 1.66602 9.744 1.66602 9.1665C1.66602 8.589 2.41935 8.24234 3.92685 7.54984L5.85102 6.6665" stroke="black" stroke-width="1.25" stroke-linecap="round" stroke-linejoin="round"/>
<path d="M18.6555 12.9354L16.0713 14.2648L11.9938 16.1373C11.0105 16.5889 10.5188 16.8148 9.99879 16.8148C9.47879 16.8148 8.98713 16.5898 8.00379 16.1373L3.92629 14.2648C4.06478 14.3284 1.47656 13.0549 1.47656 13.0549" stroke="black" stroke-width="1.25" stroke-linecap="round" stroke-linejoin="round"/>
<path d="M13.5148 5.27981C13.5148 5.42007 13.4591 5.55458 13.3599 5.65376L10.4397 8.57402C10.3405 8.67319 10.206 8.72891 10.0657 8.72891C9.92545 8.72891 9.79094 8.67319 9.69176 8.57402L6.7715 5.65376C6.67232 5.55458 6.61661 5.42007 6.61661 5.27981C6.61661 5.13955 6.67233 5.00504 6.7715 4.90587C6.87068 4.80669 7.00519 4.75097 7.14545 4.75097C7.2857 4.75097 7.42022 4.80669 7.51939 4.90587L9.5372 6.92367L9.5372 1.21976C9.53595 1.14955 9.54869 1.0798 9.57468 1.01456C9.60068 0.949332 9.6394 0.889929 9.6886 0.839823C9.7378 0.789716 9.79648 0.749909 9.86123 0.722725C9.92597 0.69554 9.99548 0.681524 10.0657 0.68149C10.1359 0.681457 10.2055 0.695409 10.2702 0.722533C10.335 0.749656 10.3937 0.789408 10.443 0.839468C10.4922 0.889528 10.531 0.948894 10.557 1.0141C10.5831 1.07931 10.5959 1.14905 10.5947 1.21927L10.5947 6.92318L12.612 4.90587C12.7112 4.80669 12.8457 4.75097 12.986 4.75097C13.1262 4.75097 13.2607 4.80669 13.3599 4.90587C13.4591 5.00504 13.5148 5.13955 13.5148 5.27981Z" fill="black"/>
</g>
<defs>
<clipPath id="clip0_367_275">
<rect width="20" height="20" fill="white"/>
</clipPath>
</defs>
</svg>
