<svg width="20" height="20" viewBox="0 0 20 20" fill="none" xmlns="http://www.w3.org/2000/svg">
<g clip-path="url(#clip0_355_41057)">
<path d="M14.1477 6.6665L16.0727 7.54984C17.5785 8.24317 18.3327 8.58984 18.3327 9.1665C18.3327 9.74317 17.5793 10.0907 16.0718 10.7832L11.9943 12.6557C11.011 13.1073 10.5193 13.3332 9.99935 13.3332C9.47935 13.3332 8.98768 13.1073 8.00435 12.6557L3.92685 10.7823C2.41935 10.0915 1.66602 9.744 1.66602 9.1665C1.66602 8.589 2.41935 8.24234 3.92685 7.54984L5.85102 6.6665" stroke="black" stroke-width="1.25" stroke-linecap="round" stroke-linejoin="round"/>
<path d="M18.6555 12.9354L16.0713 14.2648L11.9938 16.1373C11.0105 16.5889 10.5188 16.8148 9.99879 16.8148C9.47879 16.8148 8.98713 16.5898 8.00379 16.1373L3.92629 14.2648C4.06478 14.3284 1.47656 13.0549 1.47656 13.0549" stroke="black" stroke-width="1.25" stroke-linecap="round" stroke-linejoin="round"/>
<path d="M6.64925 4.29392C6.64925 4.15366 6.70497 4.01915 6.80415 3.91997L9.72441 0.999712C9.82359 0.900536 9.9581 0.844819 10.0984 0.844819C10.2386 0.844819 10.3731 0.900536 10.4723 0.999712L13.3926 3.91997C13.4917 4.01915 13.5475 4.15366 13.5475 4.29392C13.5475 4.43418 13.4917 4.56869 13.3926 4.66786C13.2934 4.76704 13.1589 4.82276 13.0186 4.82276C12.8784 4.82276 12.7438 4.76704 12.6447 4.66786L10.6269 2.65006L10.6269 8.35397C10.6281 8.42418 10.6154 8.49393 10.5894 8.55917C10.5634 8.6244 10.5247 8.6838 10.4755 8.73391C10.4263 8.78401 10.3676 8.82382 10.3028 8.85101C10.2381 8.87819 10.1686 8.89221 10.0984 8.89224C10.0281 8.89227 9.95861 8.87832 9.89384 8.8512C9.82907 8.82407 9.77035 8.78432 9.7211 8.73426C9.67186 8.6842 9.63308 8.62484 9.60702 8.55963C9.58097 8.49442 9.56816 8.42468 9.56935 8.35447L9.56935 2.65056L7.55204 4.66786C7.45286 4.76704 7.31835 4.82276 7.17809 4.82276C7.03783 4.82276 6.90332 4.76704 6.80415 4.66786C6.70497 4.56869 6.64925 4.43418 6.64925 4.29392Z" fill="black"/>
</g>
<defs>
<clipPath id="clip0_355_41057">
<rect width="20" height="20" fill="white"/>
</clipPath>
</defs>
</svg>
