<svg width="20" height="20" viewBox="0 0 20 20" fill="none" xmlns="http://www.w3.org/2000/svg">
<path d="M4.16667 11.6668C4.4963 11.6668 4.81853 11.5691 5.09262 11.3859C5.3667 11.2028 5.58032 10.9425 5.70647 10.638C5.83261 10.3334 5.86562 9.99831 5.80131 9.67501C5.737 9.35171 5.57827 9.05474 5.34518 8.82165C5.11209 8.58857 4.81512 8.42983 4.49182 8.36552C4.16852 8.30121 3.8334 8.33422 3.52886 8.46036C3.22432 8.58651 2.96402 8.80013 2.78088 9.07421C2.59775 9.3483 2.5 9.67053 2.5 10.0002" stroke="black" stroke-width="1.25" stroke-linecap="round"/>
<path d="M10.0007 11.6668C10.9211 11.6668 11.6673 10.9206 11.6673 10.0002C11.6673 9.07969 10.9211 8.3335 10.0007 8.3335C9.08018 8.3335 8.33398 9.07969 8.33398 10.0002C8.33398 10.9206 9.08018 11.6668 10.0007 11.6668Z" stroke="black" stroke-width="1.25"/>
<path d="M17.4993 10.0002C17.4993 10.3298 17.4016 10.652 17.2185 10.9261C17.0353 11.2002 16.775 11.4138 16.4705 11.54C16.1659 11.6661 15.8308 11.6991 15.5075 11.6348C15.1842 11.5705 14.8873 11.4118 14.6542 11.1787C14.4211 10.9456 14.2623 10.6486 14.198 10.3253C14.1337 10.002 14.1667 9.6669 14.2929 9.36236C14.419 9.05781 14.6327 8.79752 14.9067 8.61438C15.1808 8.43124 15.503 8.3335 15.8327 8.3335" stroke="black" stroke-width="1.25" stroke-linecap="round"/>
</svg>
