<svg width="20" height="20" viewBox="0 0 20 20" fill="none" xmlns="http://www.w3.org/2000/svg">
<path d="M11.6673 15.8333C11.6673 15.5037 11.5696 15.1815 11.3864 14.9074C11.2033 14.6333 10.943 14.4197 10.6385 14.2935C10.3339 14.1674 9.9988 14.1344 9.6755 14.1987C9.3522 14.263 9.05523 14.4217 8.82214 14.6548C8.58905 14.8879 8.43032 15.1849 8.36601 15.5082C8.3017 15.8315 8.33471 16.1666 8.46085 16.4711C8.587 16.7757 8.80062 17.036 9.0747 17.2191C9.34878 17.4023 9.67102 17.5 10.0007 17.5" stroke="black" stroke-width="1.25" stroke-linecap="round"/>
<path d="M11.6673 9.99984C11.6673 9.07936 10.9211 8.33317 10.0007 8.33317C9.08018 8.33317 8.33398 9.07936 8.33398 9.99984C8.33398 10.9203 9.08018 11.6665 10.0007 11.6665C10.9211 11.6665 11.6673 10.9203 11.6673 9.99984Z" stroke="black" stroke-width="1.25"/>
<path d="M10.0007 2.50016C10.3303 2.50016 10.6525 2.59791 10.9266 2.78105C11.2007 2.96418 11.4143 3.22448 11.5405 3.52902C11.6666 3.83357 11.6996 4.16868 11.6353 4.49198C11.571 4.81528 11.4122 5.11225 11.1792 5.34534C10.9461 5.57843 10.6491 5.73716 10.3258 5.80147C10.0025 5.86578 9.66739 5.83277 9.36285 5.70663C9.0583 5.58048 8.798 5.36686 8.61487 5.09278C8.43173 4.8187 8.33398 4.49646 8.33398 4.16683" stroke="black" stroke-width="1.25" stroke-linecap="round"/>
</svg>
