<svg width="20" height="20" viewBox="0 0 20 20" fill="none" xmlns="http://www.w3.org/2000/svg">
<path fill-rule="evenodd" clip-rule="evenodd" d="M4.375 6.6665C4.375 5.17466 4.96763 3.74392 6.02252 2.68903C7.07742 1.63414 8.50816 1.0415 10 1.0415C11.4918 1.0415 12.9226 1.63414 13.9775 2.68903C15.0324 3.74392 15.625 5.17466 15.625 6.6665V10.8332C15.625 12.325 15.0324 13.7558 13.9775 14.8106C12.9226 15.8655 11.4918 16.4582 10 16.4582C8.50816 16.4582 7.07742 15.8655 6.02252 14.8106C4.96763 13.7558 4.375 12.325 4.375 10.8332V6.6665ZM10 2.2915C8.83968 2.2915 7.72688 2.75244 6.90641 3.57291C6.08594 4.39338 5.625 5.50618 5.625 6.6665V10.8332C5.625 11.9935 6.08594 13.1063 6.90641 13.9268C7.72688 14.7472 8.83968 15.2082 10 15.2082C11.1603 15.2082 12.2731 14.7472 13.0936 13.9268C13.9141 13.1063 14.375 11.9935 14.375 10.8332V6.6665C14.375 4.24984 12.4167 2.2915 10 2.2915ZM8.7625 5.87067C8.64402 5.98107 8.48732 6.04117 8.3254 6.03832C8.16348 6.03546 8.00899 5.96987 7.89448 5.85536C7.77997 5.74084 7.71438 5.58636 7.71152 5.42444C7.70866 5.26252 7.76877 5.10582 7.87917 4.98734L8.32417 5.40734C8.17472 5.26853 8.02666 5.12825 7.88 4.9865V4.98567L7.88167 4.984L7.885 4.9815L7.89167 4.97484L7.945 4.92484C7.975 4.89873 8.01361 4.86928 8.06083 4.8365C8.155 4.7715 8.28417 4.69734 8.455 4.62817C8.79667 4.49067 9.295 4.37484 10 4.37484C10.705 4.37484 11.2033 4.49067 11.545 4.629C11.7158 4.69817 11.845 4.77067 11.9392 4.8365C11.9985 4.87886 12.055 4.92507 12.1083 4.97484L12.115 4.9815L12.1183 4.984L12.1192 4.98567C12.1192 4.9865 12.1208 4.98734 11.6758 5.40734L12.1208 4.98734C12.2374 5.10536 12.3023 5.26486 12.3013 5.43075C12.3003 5.59664 12.2334 5.75534 12.1154 5.87192C11.9974 5.98851 11.8379 6.05343 11.672 6.05242C11.5061 6.0514 11.3474 5.98453 11.2308 5.8665C11.1821 5.83478 11.1301 5.80824 11.0758 5.78734C10.9033 5.71734 10.5675 5.62484 10 5.62484C9.4325 5.62484 9.09667 5.71734 8.92417 5.78734C8.8674 5.80913 8.81319 5.83708 8.7625 5.87067ZM8.7625 8.3715C8.64457 8.4853 8.48666 8.54822 8.32279 8.54672C8.15892 8.54522 8.00219 8.47941 7.88636 8.36348C7.77054 8.24754 7.70488 8.09076 7.70354 7.92688C7.70219 7.76301 7.76526 7.60516 7.87917 7.48734L8.33333 7.9165C8.18106 7.7744 8.02994 7.63107 7.88 7.4865V7.48567L7.88167 7.484L7.885 7.4815L7.89167 7.47484L7.945 7.42484C7.975 7.39873 8.01361 7.36928 8.06083 7.3365C8.155 7.2715 8.28417 7.19734 8.455 7.12817C8.79667 6.99067 9.295 6.87484 10 6.87484C10.705 6.87484 11.2033 6.99067 11.545 7.129C11.7158 7.19734 11.845 7.27067 11.9392 7.3365C11.9985 7.37886 12.055 7.42508 12.1083 7.47484L12.115 7.4815L12.1183 7.484L12.1192 7.48567C12.1192 7.4865 12.1208 7.48734 11.6667 7.9165L12.1208 7.48734C12.2312 7.60582 12.2913 7.76252 12.2885 7.92444C12.2856 8.08636 12.22 8.24084 12.1055 8.35536C11.991 8.46987 11.8365 8.53546 11.6746 8.53832C11.5127 8.54117 11.356 8.48107 11.2375 8.37067L11.2308 8.3665C11.1821 8.33478 11.1301 8.30824 11.0758 8.28734C10.9033 8.21734 10.5675 8.12484 10 8.12484C9.4325 8.12484 9.09667 8.21734 8.92417 8.28734C8.86988 8.30824 8.81793 8.33478 8.76917 8.3665L8.7625 8.3715ZM2.5 8.5415C2.66576 8.5415 2.82473 8.60735 2.94194 8.72456C3.05915 8.84177 3.125 9.00074 3.125 9.1665V10.8332C3.125 12.6565 3.84933 14.4052 5.13864 15.6945C6.42795 16.9838 8.17664 17.7082 10 17.7082C11.8234 17.7082 13.572 16.9838 14.8614 15.6945C16.1507 14.4052 16.875 12.6565 16.875 10.8332V9.1665C16.875 9.00074 16.9408 8.84177 17.0581 8.72456C17.1753 8.60735 17.3342 8.5415 17.5 8.5415C17.6658 8.5415 17.8247 8.60735 17.9419 8.72456C18.0592 8.84177 18.125 9.00074 18.125 9.1665V10.8332C18.125 15.3207 14.4875 18.9582 10 18.9582C5.5125 18.9582 1.875 15.3207 1.875 10.8332V9.1665C1.875 9.00074 1.94085 8.84177 2.05806 8.72456C2.17527 8.60735 2.33424 8.5415 2.5 8.5415Z" fill="black"/>
</svg>
