<svg width="20" height="20" viewBox="0 0 20 20" fill="none" xmlns="http://www.w3.org/2000/svg">
<path d="M5.83398 6.66667C5.83398 5.5616 6.27297 4.50179 7.05437 3.72039C7.83577 2.93899 8.89558 2.5 10.0007 2.5C11.1057 2.5 12.1655 2.93899 12.9469 3.72039C13.7283 4.50179 14.1673 5.5616 14.1673 6.66667V9.16667C14.1673 10.2717 13.7283 11.3315 12.9469 12.1129C12.1655 12.8943 11.1057 13.3333 10.0007 13.3333C8.89558 13.3333 7.83577 12.8943 7.05437 12.1129C6.27297 11.3315 5.83398 10.2717 5.83398 9.16667V6.66667Z" stroke="black" stroke-width="1.25"/>
<path d="M10.8333 6.6665H14.1667M10.8333 9.1665H14.1667M10 15.8332V18.3332" stroke="black" stroke-width="1.25" stroke-linecap="round"/>
<path d="M17.2923 8.3335C17.2923 8.16774 17.2265 8.00876 17.1093 7.89155C16.992 7.77434 16.8331 7.7085 16.6673 7.7085C16.5016 7.7085 16.3426 7.77434 16.2254 7.89155C16.1082 8.00876 16.0423 8.16774 16.0423 8.3335H17.2923ZM3.95898 8.3335C3.95898 8.16774 3.89314 8.00876 3.77593 7.89155C3.65872 7.77434 3.49974 7.7085 3.33398 7.7085C3.16822 7.7085 3.00925 7.77434 2.89204 7.89155C2.77483 8.00876 2.70898 8.16774 2.70898 8.3335H3.95898ZM12.9273 14.4535C12.7823 14.5339 12.6752 14.6687 12.6296 14.8281C12.584 14.9875 12.6035 15.1585 12.684 15.3035C12.7644 15.4485 12.8992 15.5556 13.0586 15.6012C13.218 15.6468 13.389 15.6273 13.534 15.5468L12.9273 14.4535ZM16.0423 8.3335V9.16683H17.2923V8.3335H16.0423ZM3.95898 9.16683V8.3335H2.70898V9.16683H3.95898ZM10.0007 15.2085C8.3983 15.2085 6.86158 14.572 5.72855 13.4389C4.59552 12.3059 3.95898 10.7692 3.95898 9.16683H2.70898C2.70898 11.1007 3.47721 12.9554 4.84466 14.3228C6.21212 15.6903 8.06678 16.4585 10.0007 16.4585V15.2085ZM16.0423 9.16683C16.0425 10.2459 15.7537 11.3054 15.2059 12.2351C14.6581 13.1648 13.8713 13.9308 12.9273 14.4535L13.534 15.5468C14.673 14.9158 15.6223 13.9913 16.2833 12.8694C16.9442 11.7474 17.2926 10.469 17.2923 9.16683H16.0423Z" fill="black"/>
</svg>
