<svg width="20" height="20" viewBox="0 0 20 20" fill="none" xmlns="http://www.w3.org/2000/svg">
<path d="M15 6.66687V10.8335C15 12.1596 14.4732 13.4314 13.5355 14.3691C12.5979 15.3067 11.3261 15.8335 10 15.8335C8.67392 15.8335 7.40215 15.3067 6.46447 14.3691C5.52678 13.4314 5 12.1596 5 10.8335V6.66687C5.00003 5.65427 5.3075 4.66554 5.88174 3.83151C6.45599 2.99748 7.26993 2.35746 8.21587 1.99614C9.16181 1.63482 10.1952 1.56922 11.1792 1.80803C12.1632 2.04685 13.0516 2.57881 13.7267 3.33353" stroke="black" stroke-width="1.25" stroke-linecap="round"/>
<path d="M8.33333 5.41667C8.33333 5.41667 8.7275 5 10 5C11.2725 5 11.6667 5.41667 11.6667 5.41667M8.33333 7.91667C8.33333 7.91667 8.7275 7.5 10 7.5C11.2725 7.5 11.6667 7.91667 11.6667 7.91667M17.5 9.16667V10.8333C17.5003 12.2304 17.1103 13.5997 16.3742 14.787C15.638 15.9743 14.5848 16.9324 13.3333 17.5533M2.5 9.16667V10.8333C2.5 12.8225 3.29018 14.7301 4.6967 16.1366C6.10322 17.5432 8.01088 18.3333 10 18.3333" stroke="black" stroke-width="1.25" stroke-linecap="round"/>
</svg>
