<svg width="20" height="20" viewBox="0 0 20 20" fill="none" xmlns="http://www.w3.org/2000/svg">
<path d="M17.4993 13.3337C17.4993 15.6903 17.4993 16.8695 16.7668 17.6012C16.0352 18.3337 14.856 18.3337 12.4993 18.3337H7.49935C5.14268 18.3337 3.96352 18.3337 3.23185 17.6012C2.49935 16.8695 2.49935 15.6903 2.49935 13.3337V6.66699C2.49935 4.31033 2.49935 3.13116 3.23185 2.39949C3.96352 1.66699 5.14268 1.66699 7.49935 1.66699H12.4993C14.856 1.66699 16.0352 1.66699 16.7668 2.39949C17.4993 3.13116 17.4993 4.31033 17.4993 6.66699V10.0003M6.66602 1.66699V5.00033M6.66602 18.3337V8.33366M1.66602 10.0003H3.33268M1.66602 13.3337H3.33268M1.66602 6.66699H3.33268M9.58268 5.41699H13.7493M9.58268 8.33366H13.7493" stroke="black" stroke-width="1.25" stroke-linecap="round"/>
</svg>
