<svg width="20" height="20" viewBox="0 0 20 20" fill="none" xmlns="http://www.w3.org/2000/svg">
<path d="M1.66602 5.00033C1.66602 3.42866 1.66602 2.64366 2.15435 2.15533C2.64268 1.66699 3.42768 1.66699 4.99935 1.66699C6.57102 1.66699 7.35602 1.66699 7.84435 2.15533C8.33268 2.64366 8.33268 3.42866 8.33268 5.00033V15.0003C8.33268 16.572 8.33268 17.357 7.84435 17.8453C7.35602 18.3337 6.57102 18.3337 4.99935 18.3337C3.42768 18.3337 2.64268 18.3337 2.15435 17.8453C1.66602 17.357 1.66602 16.572 1.66602 15.0003V5.00033ZM11.666 5.00033C11.666 3.42866 11.666 2.64366 12.1543 2.15533C12.6427 1.66699 13.4277 1.66699 14.9993 1.66699C16.571 1.66699 17.356 1.66699 17.8443 2.15533C18.3327 2.64366 18.3327 3.42866 18.3327 5.00033V15.0003C18.3327 16.572 18.3327 17.357 17.8443 17.8453C17.356 18.3337 16.571 18.3337 14.9993 18.3337C13.4277 18.3337 12.6427 18.3337 12.1543 17.8453C11.666 17.357 11.666 16.572 11.666 15.0003V5.00033Z" fill="black"/>
</svg>
