<svg width="20" height="20" viewBox="0 0 20 20" fill="none" xmlns="http://www.w3.org/2000/svg">
<path d="M2.5 17.4998L3.215 14.9982C3.29271 14.7261 3.4384 14.4783 3.63833 14.2782L15.1717 2.74399C15.3279 2.58776 15.5399 2.5 15.7608 2.5C15.9818 2.5 16.1937 2.58776 16.35 2.74399L17.255 3.64899C17.4112 3.80526 17.499 4.01719 17.499 4.23816C17.499 4.45913 17.4112 4.67105 17.255 4.82732L5.72167 16.3607C5.52168 16.5612 5.27388 16.7075 5.00167 16.7857L2.5 17.4998Z" stroke="black" stroke-width="1.25" stroke-linecap="round" stroke-linejoin="round"/>
<path d="M13.334 4.58252L15.3165 6.56419C16.1498 7.39752 16.5665 7.81419 16.5665 8.33252C16.5665 8.84919 16.1498 9.26585 15.3165 10.0992L14.5832 10.8325M7.08398 10.8325L9.16732 12.9159" stroke="black" stroke-width="1.25" stroke-linecap="round" stroke-linejoin="round"/>
</svg>
