<svg width="20" height="20" viewBox="0 0 20 20" fill="none" xmlns="http://www.w3.org/2000/svg">
<path d="M18.629 8.85789C18.5885 8.78648 18.5344 8.72375 18.4696 8.67328C18.4049 8.6228 18.3308 8.58557 18.2517 8.56371C18.1726 8.54185 18.0899 8.53579 18.0085 8.54587C17.927 8.55595 17.8483 8.58198 17.7769 8.62247C17.7055 8.66297 17.6428 8.71712 17.5923 8.78186C17.5418 8.84659 17.5046 8.92064 17.4827 8.99976C17.4609 9.07888 17.4548 9.16154 17.4649 9.243C17.475 9.32447 17.501 9.40315 17.5415 9.47456L18.629 8.85789ZM15.0048 6.69122C15.1227 6.80513 15.2805 6.8682 15.4444 6.86686C15.6083 6.86551 15.765 6.79985 15.881 6.68403C15.9969 6.5682 16.0627 6.41147 16.0642 6.2476C16.0657 6.08373 16.0028 5.92582 15.889 5.80789L15.0048 6.69122ZM7.72401 15.7496L4.29234 12.3162L3.40984 13.1996L6.83984 16.6329L7.72401 15.7496ZM14.4182 11.9104L12.8215 12.5104L13.2607 13.6812L14.859 13.0812L14.4182 11.9104ZM7.52984 7.19956L8.10901 5.62039L6.93567 5.18956L6.35651 6.76956L7.52984 7.19956ZM5.03651 9.49622C5.62984 9.33289 6.08067 9.21789 6.44984 8.95289L5.71984 7.93789C5.57567 8.04206 5.38817 8.10289 4.70484 8.29122L5.03651 9.49622ZM6.35651 6.76956C6.11234 7.43622 6.03567 7.61789 5.92067 7.75289L6.87234 8.56372C7.1665 8.21789 7.31734 7.77706 7.52984 7.19956L6.35651 6.76956ZM6.44984 8.95289C6.60595 8.84011 6.74678 8.71039 6.87234 8.56372L5.92067 7.75289C5.8612 7.82221 5.79379 7.8843 5.71984 7.93789L6.44984 8.95289ZM12.8215 12.5104C12.2473 12.7271 11.8098 12.8804 11.4665 13.1771L12.2848 14.1237C12.4182 14.0071 12.599 13.9287 13.2615 13.6804L12.8215 12.5104ZM11.7532 15.3329C11.9407 14.6504 12.0015 14.4637 12.1048 14.3196L11.0898 13.5904C10.8248 13.9596 10.7107 14.4104 10.5482 15.0021L11.7532 15.3329ZM11.4665 13.1779C11.3243 13.3001 11.1987 13.4376 11.0898 13.5904L12.1048 14.3196C12.1576 14.2462 12.2176 14.1815 12.2848 14.1237L11.4665 13.1779ZM4.29317 12.3146C3.75484 11.7754 3.38984 11.4087 3.15317 11.1112C2.91484 10.8121 2.89067 10.6829 2.89067 10.6254L1.64067 10.6329C1.64317 11.1179 1.88401 11.5246 2.17484 11.8896C2.46651 12.2562 2.89234 12.6812 3.40901 13.1979L4.29317 12.3146ZM4.70484 8.29122C4.00067 8.48622 3.41984 8.64456 2.98567 8.81956C2.55234 8.99289 2.14234 9.22789 1.90067 9.64789L2.98401 10.2712C3.01234 10.2212 3.09734 10.1212 3.45067 9.97956C3.80401 9.83789 4.30234 9.69872 5.03651 9.49622L4.70484 8.29122ZM2.89067 10.6246C2.88969 10.5007 2.92161 10.3787 2.98317 10.2712L1.90067 9.64789C1.72855 9.94747 1.63827 10.2874 1.64067 10.6329L2.89067 10.6246ZM6.83984 16.6329C7.35984 17.1529 7.78734 17.5821 8.15567 17.8746C8.52234 18.1679 8.93151 18.4096 9.41984 18.4104L9.4215 17.1604C9.364 17.1604 9.23484 17.1362 8.934 16.8971C8.634 16.6587 8.26567 16.2921 7.72401 15.7496L6.83984 16.6329ZM10.5482 15.0021C10.344 15.7421 10.2048 16.2429 10.0623 16.5987C9.919 16.9554 9.81817 17.0404 9.76817 17.0687L10.3873 18.1546C10.8123 17.9129 11.0473 17.4996 11.2223 17.0637C11.3973 16.6271 11.5573 16.0429 11.7532 15.3329L10.5482 15.0021ZM9.41984 18.4104C9.75901 18.4104 10.0923 18.3229 10.3873 18.1546L9.76817 17.0687C9.66254 17.1289 9.54306 17.1605 9.4215 17.1604L9.41984 18.4104ZM14.859 13.0796C15.9932 12.6537 16.9115 12.3104 17.564 11.9479C18.2265 11.5812 18.7565 11.1179 18.9148 10.3854L17.6932 10.1212C17.6482 10.3296 17.4998 10.5546 16.9573 10.8546C16.4048 11.1621 15.5923 11.4687 14.419 11.9096L14.859 13.0796ZM13.7665 3.68289C12.9032 2.81872 12.2065 2.11956 11.604 1.67122C10.9923 1.21789 10.3473 0.923724 9.61234 1.08622L9.88234 2.30622C10.0907 2.26039 10.3565 2.30206 10.859 2.67539C11.369 3.05456 11.9898 3.67289 12.8823 4.56706L13.7665 3.68289ZM8.10901 5.62039C8.54401 4.43456 8.84651 3.61122 9.15067 3.05289C9.45067 2.50289 9.67401 2.35289 9.88234 2.30622L9.61317 1.08622C8.87817 1.24789 8.41734 1.78622 8.05317 2.45456C7.694 3.11456 7.35567 4.04289 6.93567 5.18956L8.10901 5.62039ZM17.5423 9.47456C17.709 9.77039 17.729 9.95789 17.6932 10.1212L18.9148 10.3854C19.0332 9.83789 18.8998 9.33539 18.629 8.85789L17.5423 9.47456ZM12.8823 4.56706L15.0048 6.69122L15.889 5.80789L13.7665 3.68289L12.8823 4.56706Z" fill="black"/>
<path d="M1.22438 17.8913C1.11398 18.0098 1.05388 18.1665 1.05674 18.3284C1.05959 18.4903 1.12519 18.6448 1.2397 18.7593C1.35421 18.8738 1.5087 18.9394 1.67061 18.9423C1.83253 18.9451 1.98924 18.885 2.10772 18.7746L1.22438 17.8913ZM5.98605 14.893C6.09984 14.775 6.16277 14.6171 6.16127 14.4533C6.15977 14.2894 6.09396 14.1327 5.97803 14.0168C5.86209 13.901 5.7053 13.8354 5.54143 13.834C5.37755 13.8327 5.21971 13.8957 5.10188 14.0096L5.98605 14.893ZM2.10772 18.7746L5.98605 14.893L5.10188 14.0096L1.22272 17.8913L2.10772 18.7746Z" fill="black"/>
</svg>
