<svg width="20" height="20" viewBox="0 0 20 20" fill="none" xmlns="http://www.w3.org/2000/svg">
<path d="M10.0007 2.5C9.5062 2.5 9.02285 2.64662 8.61173 2.92133C8.2006 3.19603 7.88017 3.58648 7.69095 4.04329C7.50173 4.50011 7.45222 5.00277 7.54869 5.48773C7.64515 5.97268 7.88325 6.41814 8.23288 6.76777C8.58251 7.1174 9.02797 7.3555 9.51293 7.45196C9.99788 7.54843 10.5005 7.49892 10.9574 7.3097C11.4142 7.12048 11.8046 6.80005 12.0793 6.38893C12.354 5.9778 12.5007 5.49445 12.5007 5M4.58398 12.5C5.07844 12.5 5.56179 12.6466 5.97291 12.9213C6.38403 13.196 6.70446 13.5865 6.89368 14.0433C7.0829 14.5001 7.13241 15.0028 7.03595 15.4877C6.93948 15.9727 6.70138 16.4181 6.35175 16.7678C6.00212 17.1174 5.55666 17.3555 5.07171 17.452C4.58676 17.5484 4.08409 17.4989 3.62728 17.3097C3.17046 17.1205 2.78001 16.8 2.50531 16.3889C2.23061 15.9778 2.08398 15.4945 2.08398 15M15.4173 17.5C14.9229 17.5 14.4395 17.3534 14.0284 17.0787C13.6173 16.804 13.2968 16.4135 13.1076 15.9567C12.9184 15.4999 12.8689 14.9972 12.9654 14.5123C13.0618 14.0273 13.2999 13.5819 13.6496 13.2322C13.9992 12.8826 14.4446 12.6445 14.9296 12.548C15.4145 12.4516 15.9172 12.5011 16.374 12.6903C16.8308 12.8795 17.2213 13.2 17.496 13.6111C17.7707 14.0222 17.9173 14.5055 17.9173 15M16.6673 10.8333C16.6684 9.88736 16.4677 8.95203 16.0786 8.0898C15.6894 7.22757 15.1208 6.45829 14.4107 5.83333M3.33398 10.8333C3.33286 9.88736 3.53358 8.95203 3.92273 8.0898C4.31188 7.22757 4.88051 6.45829 5.59065 5.83333M8.33398 17.29C8.87846 17.43 9.43846 17.5006 10.0007 17.5C10.5628 17.5006 11.1228 17.43 11.6673 17.29" stroke="black" stroke-width="1.25" stroke-linecap="round"/>
</svg>
