<svg width="20" height="20" viewBox="0 0 20 20" fill="none" xmlns="http://www.w3.org/2000/svg">
<path d="M9.58272 13.3337H10.416C10.6371 13.3337 10.849 13.2459 11.0053 13.0896C11.1616 12.9333 11.2494 12.7213 11.2494 12.5003V11.3328C11.727 11.0583 12.1005 10.6335 12.3119 10.1248C12.5232 9.61596 12.5604 9.05159 12.4179 8.51943C12.2753 7.98726 11.9609 7.51712 11.5235 7.18211C11.0861 6.84711 10.5503 6.66601 9.99938 6.667C9.4488 6.6667 8.91352 6.84817 8.47663 7.18324C8.03974 7.5183 7.72569 7.98822 7.58321 8.52005C7.44073 9.05188 7.4778 9.61586 7.68866 10.1245C7.89953 10.6331 8.2724 11.0578 8.74938 11.3328V12.5003C8.74938 12.7213 8.83718 12.9333 8.99346 13.0896C9.14974 13.2459 9.3617 13.3337 9.58272 13.3337Z" stroke="black" stroke-width="1.25" stroke-linejoin="round"/>
<path d="M2.5 8.68116C2.5 6.01616 2.5 4.68366 2.815 4.23533C3.12917 3.78783 4.38167 3.35866 6.8875 2.50116L7.365 2.33783C8.67083 1.89033 9.32333 1.66699 10 1.66699C10.6767 1.66699 11.3292 1.89033 12.635 2.33783L13.1125 2.50116C15.6183 3.35866 16.8708 3.78783 17.185 4.23533C17.5 4.68366 17.5 6.01699 17.5 8.68116V9.99283C17.5 12.0803 16.8025 13.6903 15.8333 14.9203M2.66083 11.667C3.375 15.2487 6.31333 17.0945 8.24917 17.9395C8.85 18.202 9.15083 18.3337 10 18.3337C10.85 18.3337 11.15 18.202 11.7508 17.9395C12.2333 17.7295 12.7767 17.4562 13.3333 17.1112" stroke="black" stroke-width="1.25" stroke-linecap="round"/>
</svg>
