<svg width="20" height="20" viewBox="0 0 20 20" fill="none" xmlns="http://www.w3.org/2000/svg">
<path fill-rule="evenodd" clip-rule="evenodd" d="M2.815 4.23533C2.5 4.68366 2.5 6.01699 2.5 8.68116V9.99283C2.5 14.6912 6.0325 16.972 8.24917 17.9395C8.85 18.202 9.15083 18.3337 10 18.3337C10.85 18.3337 11.15 18.202 11.7508 17.9395C13.9675 16.9712 17.5 14.692 17.5 9.99283V8.68116C17.5 6.01616 17.5 4.68366 17.185 4.23533C16.8708 3.78783 15.6183 3.35866 13.1125 2.50116L12.635 2.33783C11.3292 1.89033 10.6767 1.66699 10 1.66699C9.32333 1.66699 8.67083 1.89033 7.365 2.33783L6.8875 2.50033C4.38167 3.35866 3.12917 3.78783 2.815 4.23533ZM11.25 12.5003C11.25 12.7213 11.1622 12.9333 11.0059 13.0896C10.8496 13.2459 10.6377 13.3337 10.4167 13.3337H9.58333C9.36232 13.3337 9.15036 13.2459 8.99408 13.0896C8.8378 12.9333 8.75 12.7213 8.75 12.5003V11.3328C8.27236 11.0582 7.89884 10.6335 7.68753 10.1247C7.47621 9.61595 7.43893 9.05159 7.5815 8.51942C7.72407 7.98726 8.0385 7.51711 8.47587 7.18211C8.91325 6.8471 9.44907 6.66601 10 6.66699C10.5506 6.6667 11.0859 6.84817 11.5227 7.18323C11.9596 7.5183 12.2737 7.98822 12.4162 8.52004C12.5587 9.05187 12.5216 9.61586 12.3107 10.1245C12.0999 10.6331 11.727 11.0578 11.25 11.3328V12.5003Z" fill="black"/>
</svg>
