<svg width="20" height="20" viewBox="0 0 20 20" fill="none" xmlns="http://www.w3.org/2000/svg">
<path d="M13.4612 2.86187L15.4254 4.56438C16.7779 5.73604 17.4537 6.32271 17.4537 7.08354C17.4537 7.84437 16.7779 8.43021 15.4254 9.60271L13.4612 11.3052C12.8662 11.8202 12.5695 12.0777 12.3254 11.9669C12.082 11.8552 12.082 11.4619 12.082 10.6752V9.40521C9.58203 9.40521 6.8737 10.566 5.83203 12.5002C5.83203 6.30937 9.53536 4.76188 12.082 4.76188V3.49187C12.082 2.70521 12.082 2.31187 12.3254 2.20021C12.5695 2.08937 12.867 2.34687 13.4612 2.86187Z" stroke="black" stroke-width="1.25" stroke-linecap="round" stroke-linejoin="round"/>
<path d="M9.99935 18.3337C6.07102 18.3337 4.10685 18.3337 2.88602 17.1128M9.99935 18.3337C13.9277 18.3337 15.8918 18.3337 17.1118 17.1128M9.99935 18.3337H10.716M2.88602 17.1128C1.66602 15.8937 1.66602 13.9287 1.66602 10.0003V10.0453M2.88602 17.1128C2.35602 16.5828 2.05602 15.912 1.88602 15.0003C1.66852 13.8228 1.66602 12.2428 1.66602 10.0453M17.1118 17.1128C18.3327 15.8928 18.3327 13.9287 18.3327 10.0003M17.1118 17.1128C15.9685 18.257 14.171 18.3295 10.716 18.3337M17.1118 17.1128C18.1452 16.0795 18.3043 14.5112 18.3285 11.6662M10.716 18.3337C14.1743 18.3287 15.9718 18.257 17.116 17.1128C18.151 16.0787 18.3085 14.5103 18.3327 11.6653M1.66602 10.0453V9.99783M9.99935 1.66699C6.07102 1.66699 4.10685 1.66699 2.88602 2.88699M2.88602 2.88699C2.07518 3.69866 1.80268 4.83949 1.71185 6.66699M2.88602 2.88699C3.91935 1.85366 5.48852 1.69533 8.33268 1.67116M8.33435 1.66699C5.48935 1.69116 3.92102 1.84866 2.88685 2.88366" stroke="black" stroke-width="1.25" stroke-linecap="round"/>
</svg>
