<svg width="20" height="20" viewBox="0 0 20 20" fill="none" xmlns="http://www.w3.org/2000/svg">
<path d="M3.93924 13.4471C2.65174 12.1587 2.00757 11.5154 1.7684 10.6796C1.5284 9.84372 1.7334 8.95622 2.1434 7.18205L2.37924 6.15872C2.7234 4.66539 2.8959 3.91872 3.40674 3.40705C3.91757 2.89539 4.66507 2.72372 6.1584 2.37955L7.18174 2.14289C8.95674 1.73372 9.8434 1.52872 10.6792 1.76789C11.5151 2.00789 12.1584 2.65205 13.4459 3.93955L14.9709 5.46455C17.2134 7.70622 18.3326 8.82622 18.3326 10.2179C18.3326 11.6104 17.2126 12.7304 14.9717 14.9712C12.7301 17.2129 11.6101 18.3329 10.2176 18.3329C8.8259 18.3329 7.70507 17.2129 5.46424 14.9721L3.93924 13.4471Z" stroke="black" stroke-width="1.25"/>
<path d="M8.34999 8.57695C9.00086 7.92607 9.00086 6.8708 8.34999 6.21993C7.69911 5.56905 6.64384 5.56905 5.99296 6.21993C5.34209 6.8708 5.34209 7.92607 5.99296 8.57695C6.64384 9.22782 7.69911 9.22782 8.34999 8.57695Z" stroke="black" stroke-width="1.25"/>
<path d="M9.61719 15.4163L15.433 9.59961" stroke="black" stroke-width="1.25" stroke-linecap="round"/>
</svg>
