<svg width="20" height="20" viewBox="0 0 20 20" fill="none" xmlns="http://www.w3.org/2000/svg">
<path d="M4.16602 10.0003H9.99935C11.1044 10.0003 12.1642 9.56134 12.9456 8.77994C13.727 7.99854 14.166 6.93873 14.166 5.83366C14.166 4.72859 13.727 3.66878 12.9456 2.88738C12.1642 2.10598 11.1044 1.66699 9.99935 1.66699H6.34018C5.76363 1.66721 5.21075 1.89635 4.80306 2.30403C4.39537 2.71172 4.16624 3.2646 4.16602 3.84116V10.0003ZM4.16602 10.0003H11.666C12.7711 10.0003 13.8309 10.4393 14.6123 11.2207C15.3937 12.0021 15.8327 13.0619 15.8327 14.167C15.8327 15.2721 15.3937 16.3319 14.6123 17.1133C13.8309 17.8947 12.7711 18.3337 11.666 18.3337H5.88185C4.93435 18.3337 4.16602 17.6145 4.16602 16.667M4.16602 10.0003V13.3087" stroke="black" stroke-width="1.25" stroke-linecap="round"/>
</svg>
