<svg width="20" height="20" viewBox="0 0 20 20" fill="none" xmlns="http://www.w3.org/2000/svg">
<path d="M6.62398 1.875H13.3773C14.1265 1.875 14.7507 1.875 15.2457 1.94167C15.769 2.01167 16.2415 2.16667 16.6207 2.54583C17.0007 2.92583 17.1557 3.39833 17.2257 3.92083C17.2923 4.41667 17.2923 5.04167 17.2923 5.79V6.625C17.2923 6.79076 17.2265 6.94973 17.1093 7.06694C16.992 7.18415 16.8331 7.25 16.6673 7.25C16.5016 7.25 16.3426 7.18415 16.2254 7.06694C16.1082 6.94973 16.0423 6.79076 16.0423 6.625V5.83333C16.0423 5.03 16.0407 4.49 15.9865 4.0875C15.9348 3.70333 15.8457 3.53833 15.7365 3.43C15.6273 3.32167 15.464 3.2325 15.0798 3.18C14.6773 3.12667 14.1373 3.125 13.334 3.125H10.6257V7.5C10.6257 7.66576 10.5598 7.82473 10.4426 7.94194C10.3254 8.05915 10.1664 8.125 10.0007 8.125C9.83489 8.125 9.67592 8.05915 9.55871 7.94194C9.4415 7.82473 9.37565 7.66576 9.37565 7.5V3.125H6.66732C5.86398 3.125 5.32398 3.12667 4.92148 3.18083C4.53732 3.2325 4.37232 3.32167 4.26398 3.43083C4.15565 3.54 4.06648 3.70333 4.01398 4.0875C3.96148 4.49 3.95898 5.03 3.95898 5.83333V6.625C3.95898 6.79076 3.89314 6.94973 3.77593 7.06694C3.65872 7.18415 3.49974 7.25 3.33398 7.25C3.16822 7.25 3.00925 7.18415 2.89204 7.06694C2.77483 6.94973 2.70898 6.79076 2.70898 6.625V5.79C2.70898 5.04167 2.70898 4.41667 2.77565 3.92167C2.84565 3.39833 3.00065 2.92583 3.37982 2.54667C3.75982 2.16667 4.23232 2.01167 4.75482 1.94167C5.25065 1.875 5.87565 1.875 6.62398 1.875ZM10.0007 11.875C10.1664 11.875 10.3254 11.9408 10.4426 12.0581C10.5598 12.1753 10.6257 12.3342 10.6257 12.5V16.875H14.1673C14.3331 16.875 14.492 16.9408 14.6093 17.0581C14.7265 17.1753 14.7923 17.3342 14.7923 17.5C14.7923 17.6658 14.7265 17.8247 14.6093 17.9419C14.492 18.0592 14.3331 18.125 14.1673 18.125H5.83398C5.66822 18.125 5.50925 18.0592 5.39204 17.9419C5.27483 17.8247 5.20898 17.6658 5.20898 17.5C5.20898 17.3342 5.27483 17.1753 5.39204 17.0581C5.50925 16.9408 5.66822 16.875 5.83398 16.875H9.37565V12.5C9.37565 12.3342 9.4415 12.1753 9.55871 12.0581C9.67592 11.9408 9.83489 11.875 10.0007 11.875ZM3.33398 9.375C3.16822 9.375 3.00925 9.44085 2.89204 9.55806C2.77483 9.67527 2.70898 9.83424 2.70898 10C2.70898 10.1658 2.77483 10.3247 2.89204 10.4419C3.00925 10.5592 3.16822 10.625 3.33398 10.625H16.6673C16.8331 10.625 16.992 10.5592 17.1093 10.4419C17.2265 10.3247 17.2923 10.1658 17.2923 10C17.2923 9.83424 17.2265 9.67527 17.1093 9.55806C16.992 9.44085 16.8331 9.375 16.6673 9.375H3.33398Z" fill="black"/>
</svg>
