<svg width="20" height="20" viewBox="0 0 20 20" fill="none" xmlns="http://www.w3.org/2000/svg">
<path d="M2.29185 5.13949C2.29185 4.75616 2.57935 4.44449 2.93435 4.44449H5.15518C5.59602 4.43199 5.98518 4.12949 6.13518 3.68116L6.16018 3.60199L6.25602 3.29199C6.31435 3.10199 6.36518 2.93616 6.43685 2.78783C6.71852 2.20283 7.24018 1.79699 7.84268 1.69283C7.99602 1.66699 8.15685 1.66699 8.34268 1.66699H11.241C11.4268 1.66699 11.5885 1.66699 11.741 1.69283C12.3435 1.79699 12.866 2.20283 13.1468 2.78783C13.2185 2.93616 13.2693 3.10199 13.3277 3.29199L13.4235 3.60199L13.4485 3.68116C13.5985 4.12949 14.0652 4.43283 14.5068 4.44449H16.6485C17.0043 4.44449 17.2918 4.75533 17.2918 5.13949C17.2918 5.52366 17.0043 5.83366 16.6493 5.83366H2.93352C2.57852 5.83366 2.29185 5.52283 2.29185 5.13949ZM9.67268 18.3337H10.3285C12.5843 18.3337 13.7118 18.3337 14.446 17.6145C15.1793 16.8945 15.2543 15.7145 15.4043 13.3553L15.621 9.95449C15.7027 8.67366 15.7435 8.03366 15.3752 7.62783C15.0068 7.22199 14.386 7.22199 13.1427 7.22199H6.85852C5.61601 7.22199 4.99435 7.22199 4.62602 7.62783C4.25768 8.03366 4.29935 8.67366 4.38018 9.95449L4.59685 13.3545C4.74685 15.7153 4.82185 16.8945 5.55518 17.6145C6.28852 18.3345 7.41685 18.3337 9.67268 18.3337Z" fill="black"/>
</svg>
