<svg width="20" height="20" viewBox="0 0 20 20" fill="none" xmlns="http://www.w3.org/2000/svg">
<path d="M17.0827 5H2.91602M7.91602 9.16667L8.33268 13.3333M12.0827 9.16667L11.666 13.3333" stroke="black" stroke-width="1.25" stroke-linecap="round"/>
<path d="M5.41602 5H5.50768C5.84305 4.99143 6.16803 4.88185 6.44012 4.68559C6.7122 4.48934 6.91873 4.21553 7.03268 3.9L7.06102 3.81417L7.14185 3.57167C7.21102 3.36417 7.24602 3.26083 7.29185 3.1725C7.38202 2.99949 7.51144 2.84999 7.66975 2.73597C7.82805 2.62194 8.01085 2.54655 8.20352 2.51583C8.30102 2.5 8.41018 2.5 8.62851 2.5H11.3702C11.5885 2.5 11.6977 2.5 11.7952 2.51583C11.9878 2.54655 12.1706 2.62194 12.329 2.73597C12.4873 2.84999 12.6167 2.99949 12.7068 3.1725C12.7527 3.26083 12.7877 3.36417 12.8568 3.57167L12.9377 3.81417C13.0433 4.16523 13.2617 4.47167 13.5591 4.68605C13.8565 4.90043 14.2162 5.01077 14.5827 5" stroke="black" stroke-width="1.25"/>
<path d="M15.3105 12.833C15.163 15.0447 15.0889 16.1505 14.368 16.8247C13.6472 17.4988 12.5389 17.4997 10.3214 17.4997H9.67635C7.45969 17.4997 6.35135 17.4997 5.62969 16.8247C4.90885 16.1505 4.83552 15.0447 4.68802 12.833L4.30469 7.08301M15.693 7.08301L15.5264 9.58301" stroke="black" stroke-width="1.25" stroke-linecap="round"/>
</svg>
